<mxfile host="app.diagrams.net" modified="2024-07-02T11:18:33.641Z" agent="Mozilla/5.0 (Macintosh; Intel Mac OS X 10_15_7) AppleWebKit/605.1.15 (KHTML, like Gecko) Version/17.5 Safari/605.1.15" version="24.6.4" etag="yDCnOqf8EqzIvEdexL_h" type="github">
  <diagram name="Страница — 1" id="8uz4fEztYY7e4i1QOsKh">
    <mxGraphModel>
      <root>
        <mxCell id="0" />
        <mxCell id="1" parent="0" />
      </root>
    </mxGraphModel>
  </diagram>
</mxfile>
